{"title":"Dances With Wolves [1990] ExtCut 720p BRRip H264 AC3-CODY","uid":7687783,"size":3706194574,"categoryP":"video","categoryS":"hd___movies","magnet":"?xt=urn:btih:aa326311790d731e2b7b8f478535958619d2238a&amp;dn=Dances+With+Wolves+%5B1990%5D+ExtCut+720p+BRRip+H264+AC3-CODY&amp;tr=udp%3A%2F%2Ftracker.openbittorrent.com%3A80&amp;tr=udp%3A%2F%2Fopen.demonii.com%3A1337&amp;tr=udp%3A%2F%2Ftracker.coppersurfer.tk%3A6969&amp;tr=udp%3A%2F%2Fexodus.desync.com%3A6969","seeders":0,"leechers":0,"uploader":"CODYBOSS1969","files":20,"time":1349011332,"description":"General\nComplete name                            : Dances With Wolves [1990] Extended 720p BRRip H264 AC3 - CODY.mp4\nFormat                                   : MPEG-4\nFormat profile                           : Base Media\nCodec ID                                 : isom\nFile size                                : 3.45 GiB\nDuration                                 : 3h 53mn\nOverall bit rate mode                    : Variable\nOverall bit rate                         : 2 112 Kbps\nEncoded date                             : UTC 2012-09-01 00:49:47\n\nVideo\nID                                       : 1\nFormat                                   : AVC\nFormat/Info                              : Advanced Video Codec\nFormat profile                           : &lt;a class=&quot;__cf_email__&quot; href=&quot;/cdn-cgi/l/email-protection&quot; data-cfemail=&quot;6129080609212d554f50&quot;&gt;[email&amp;#160;protected]&lt;/a&gt;&lt;script cf-hash='f9e31' type=&quot;text/javascript&quot;&gt;\n/* &lt;![CDATA[ */!function(){try{var t=&quot;currentScript&quot;in document?document.currentScript:function(){for(var t=document.getElementsByTagName(&quot;script&quot;),e=t.length;e--;)if(t[e].getAttribute(&quot;cf-hash&quot;))return t[e]}();if(t&amp;&amp;t.previousSibling){var e,r,n,i,c=t.previousSibling,a=c.getAttribute(&quot;data-cfemail&quot;);if(a){for(e=&quot;&quot;,r=parseInt(a.substr(0,2),16),n=2;a.length-n;n+=2)i=parseInt(a.substr(n,2),16)^r,e+=String.fromCharCode(i);e=document.createTextNode(e),c.parentNode.replaceChild(e,c)}}}catch(u){}}();/* ]]&gt; */&lt;/script&gt;\nFormat settings, CABAC                   : Yes\nFormat settings, ReFrames                : 5 frames\nCodec ID                                 : avc1\nCodec ID/Info                            : Advanced Video Coding\nDuration                                 : 3h 53mn\nBit rate mode                            : Variable\nBit rate                                 : 1 662 Kbps\nMaximum bit rate                         : 20.0 Mbps\nWidth                                    : 1 280 pixels\nHeight                                   : 544 pixels\nDisplay aspect ratio                     : 2.35:1\nFrame rate mode                          : Constant\nFrame rate                               : 23.976 fps\nColor space                              : YUV\nChroma subsampling                       : 4:2:0\nBit depth                                : 8 bits\nScan type                                : Progressive\nBits/(Pixel*Frame)                       : 0.100\nStream size                              : 2.71 GiB (79%)\nWriting library                          : x264 core 125 r2200 999b753\nEncoding settings                        : rc=2pass\nColor primaries                          : Generic film\n\nAudio\nID                                       : 2\nFormat                                   : AC-3\nFormat/Info                              : Audio Coding 3\nMode extension                           : CM (complete main)\nCodec ID                                 : ac-3\nDuration                                 : 3h 53mn\nBit rate mode                            : Constant\nBit rate                                 : 448 Kbps\nChannel(s)                               : 6 channels\nChannel positions                        : Front: L C R, Side: L R, LFE\nSampling rate                            : 48.0 KHz\nBit depth                                : 16 bits\nCompression mode                         : Lossy\nStream size                              : 749 MiB (21%)\n\n\nIMDB link:                                &lt;a href=&quot; http://www.imdb.com/title/tt0099348/&quot; rel=&quot;nofollow&quot; target=&quot;_NEW&quot;&gt; http://www.imdb.com/title/tt0099348/&lt;/a&gt;\n\n\nAudio language                           : English, Sioux, Pawnee\n  \n\nSubtitles included                       : Bulgarian, Croatian, Czech, English \n                                           [full and only for non-English parts], \n                                           French, Greek, Hungarian, Polish, \n                                           Portuguese, Romanian, Serbian, \n                                           Spanish, Swedish, Vietnamese \n                                     \n\t\nPlease seed at least 1,5:1. This way this torrent has a chance to survive!\n\n\nThanks. Enjoy !!!\t","torrent":{"xt":"urn:btih:aa326311790d731e2b7b8f478535958619d2238a","amp;dn":"Dances+With+Wolves+%5B1990%5D+ExtCut+720p+BRRip+H264+AC3-CODY","amp;tr":["udp%3A%2F%2Ftracker.openbittorrent.com%3A80","udp%3A%2F%2Fopen.demonii.com%3A1337","udp%3A%2F%2Ftracker.coppersurfer.tk%3A6969","udp%3A%2F%2Fexodus.desync.com%3A6969"],"infoHash":"aa326311790d731e2b7b8f478535958619d2238a","infoHashBuffer":{"type":"Buffer","data":[170,50,99,17,121,13,115,30,43,123,143,71,133,53,149,134,25,210,35,138]},"announce":[],"urlList":[]}}